<?xml version="1.0" encoding="utf-8"?>
<svg viewBox="68.866 1.1742 363.9857 495.0207" xmlns="http://www.w3.org/2000/svg">
  <g transform="matrix(1.455942988395691, 0, 0, 1.455942988395691, -106.5401611328125, -85.15593719482422)" style="">
    <path d="m189.085 74.295v310c0 8.284-6.716 15-15 15h-38.609c-8.284 0-15-6.716-15-15v-310c0-8.284 6.716-15 15-15h38.609c8.284 0 15 6.715 15 15z" fill="#ffb509"/>
    <path d="m355.476 399.295h-185.404c-8.284 0-15-6.716-15-15v-310c0-8.284 6.716-15 15-15h185.404c8.284 0 15 6.716 15 15v310c0 8.284-6.716 15-15 15z" fill="#ffc143"/>
    <path d="m328.228 368.866h-165.505c-8.284 0-15-6.716-15-15v-249.143c0-8.284 6.716-15 15-15h165.505c8.284 0 15 6.716 15 15v249.143c0 8.284-6.715 15-15 15z" fill="#fa0"/>
    <path d="m301.42 343.845h-111.888c-8.284 0-15-6.716-15-15v-199.1c0-8.284 6.716-15 15-15h111.888c8.284 0 15 6.716 15 15v199.1c0 8.284-6.716 15-15 15z" fill="#ffb509"/>
    <path d="m255.976 302.976c0 5.799-4.701 10.5-10.5 10.5s-10.5-4.701-10.5-10.5 4.701-10.5 10.5-10.5 10.5 4.701 10.5 10.5zm-10.501-25.961c5.523 0 10-4.477 10-10v-37.732c0-5.523-4.477-10-10-10s-10 4.477-10 10v37.732c0 5.523 4.478 10 10 10z" fill="#ffe7bf"/>
    <path d="m278.895 223.92c-8.666 9.127-20.847 14.362-33.42 14.362-5.523 0-10-4.477-10-10s4.477-10 10-10c7.219 0 13.937-2.888 18.916-8.132 4.976-5.24 7.508-12.114 7.133-19.354-.704-13.564-11.907-24.404-25.505-24.678-13.24-.292-24.554 9.376-26.376 22.428-.167 1.199-.252 2.428-.252 3.651 0 5.523-4.477 10-10 10s-10-4.477-10-10c0-2.145.149-4.303.444-6.415 3.221-23.08 23.233-40.119 46.587-39.66 24.031.484 43.831 19.652 45.075 43.637.663 12.772-3.813 24.904-12.602 34.161z" fill="#fff"/>
  </g>
</svg>