<svg id="Capa_1" enable-background="new 0 0 512 512" height="512" viewBox="0 0 512 512" width="512" xmlns="http://www.w3.org/2000/svg"><g><path d="m448.774 392.064c-43.946 65.686-118.809 108.936-203.774 108.936-49.644 0-95.84-14.766-134.435-40.145-1.116-.734-.036-4.763-1.139-5.515-3.519-2.397-6.972-4.883-10.356-7.455-.859-.653-3.902 1.976-4.752 1.313-57.409-44.839-94.318-114.708-94.318-193.198 0-135.31 109.69-245 245-245 113.074 0 208.257 76.602 236.487 180.742-26.04 38.921-41.226 85.719-41.226 136.064 0 22.236 2.962 43.78 8.513 64.258z" fill="#465a61"/><path d="m451.894 245.835c0 110.457-89.543 200-200 200s-200-89.543-200-200 89.543-200 200-200 200 89.543 200 200z" fill="#596c76"/><path d="m150.998 435.074c2.113 6.639-1.556 13.734-8.195 15.847l-29.234 9.304c-.997.317-2.003.525-3.005.63-5.578-3.668-10.998-7.558-16.247-11.657l-53.403-167.798-.001-.005-40.202-126.313c-2.512-7.894 1.85-16.33 9.744-18.843l28.887-9.194c6.83-2.174 14.13 1.601 16.304 8.431l42.793 134.456.002.006z" fill="#00aaf2"/><path d="m323.208 393.504-180.994 57.604c-7.894 2.512-16.33-1.85-18.843-9.744l-94.016-295.4c-2.512-7.894 1.85-16.33 9.744-18.843l180.994-57.604c7.894-2.512 16.33 1.85 18.843 9.744l94.016 295.4c2.513 7.895-1.85 16.331-9.744 18.843z" fill="#00c1fb"/><path d="m210.023 403.622 55.815-304.934c1.492-8.149 9.307-13.546 17.456-12.054l39.416 7.215c8.149 1.492 13.546 9.307 12.054 17.456l-55.815 304.934c-1.492 8.149-9.307 13.546-17.456 12.054l-39.416-7.215c-8.149-1.492-13.546-9.307-12.054-17.456z" fill="#ff4343"/><path d="m245.143 410.051 55.815-304.934c1.492-8.149 9.307-13.546 17.456-12.054l181.285 33.182c8.149 1.492 13.546 9.307 12.054 17.456l-55.815 304.934c-1.492 8.149-9.307 13.546-17.456 12.054l-181.285-33.182c-8.149-1.492-13.545-9.307-12.054-17.456z" fill="#ff5757"/><path d="m417.158 425.851-162.8-29.799c-8.149-1.492-13.546-9.307-12.054-17.456l44.858-245.071c1.492-8.149 9.307-13.546 17.456-12.054l162.8 29.799c8.149 1.492 13.546 9.307 12.054 17.456l-44.858 245.071c-1.492 8.149-9.307 13.546-17.456 12.054z" fill="#ff4343"/><path d="m395.251 390.667-107.943-19.758c-8.149-1.492-13.546-9.307-12.054-17.456l33.815-184.743c1.492-8.149 9.307-13.546 17.456-12.054l107.943 19.758c8.149 1.492 13.546 9.307 12.054 17.456l-33.815 184.743c-1.492 8.148-9.307 13.545-17.456 12.054z" fill="#ff5757"/><path d="m222.185 115.609 75.56 237.409c2.512 7.894-1.85 16.33-9.744 18.843l-157.71 50.194c-7.894 2.512-16.33-1.85-18.843-9.744l-75.56-237.409c-2.512-7.894 1.85-16.33 9.744-18.843l157.71-50.194c7.895-2.513 16.331 1.85 18.843 9.744z" fill="#00d1fc"/><path d="m204.66 151.311 58.148 182.702c2.512 7.894-1.85 16.33-9.744 18.843l-105.249 33.497c-7.894 2.512-16.33-1.85-18.843-9.744l-58.148-182.703c-2.512-7.894 1.85-16.33 9.744-18.843l105.249-33.497c7.895-2.512 16.331 1.85 18.843 9.745z" fill="#00c1fb"/><path d="m189.085 74.295v310c0 8.284-6.716 15-15 15h-38.609c-8.284 0-15-6.716-15-15v-310c0-8.284 6.716-15 15-15h38.609c8.284 0 15 6.715 15 15z" fill="#ffb509"/><path d="m355.476 399.295h-185.404c-8.284 0-15-6.716-15-15v-310c0-8.284 6.716-15 15-15h185.404c8.284 0 15 6.716 15 15v310c0 8.284-6.716 15-15 15z" fill="#ffc143"/><path d="m328.228 368.866h-165.505c-8.284 0-15-6.716-15-15v-249.143c0-8.284 6.716-15 15-15h165.505c8.284 0 15 6.716 15 15v249.143c0 8.284-6.715 15-15 15z" fill="#fa0"/><path d="m301.42 343.845h-111.888c-8.284 0-15-6.716-15-15v-199.1c0-8.284 6.716-15 15-15h111.888c8.284 0 15 6.716 15 15v199.1c0 8.284-6.716 15-15 15z" fill="#ffb509"/><path d="m255.976 302.976c0 5.799-4.701 10.5-10.5 10.5s-10.5-4.701-10.5-10.5 4.701-10.5 10.5-10.5 10.5 4.701 10.5 10.5zm-10.501-25.961c5.523 0 10-4.477 10-10v-37.732c0-5.523-4.477-10-10-10s-10 4.477-10 10v37.732c0 5.523 4.478 10 10 10z" fill="#ffe7bf"/><path d="m278.895 223.92c-8.666 9.127-20.847 14.362-33.42 14.362-5.523 0-10-4.477-10-10s4.477-10 10-10c7.219 0 13.937-2.888 18.916-8.132 4.976-5.24 7.508-12.114 7.133-19.354-.704-13.564-11.907-24.404-25.505-24.678-13.24-.292-24.554 9.376-26.376 22.428-.167 1.199-.252 2.428-.252 3.651 0 5.523-4.477 10-10 10s-10-4.477-10-10c0-2.145.149-4.303.444-6.415 3.221-23.08 23.233-40.119 46.587-39.66 24.031.484 43.831 19.652 45.075 43.637.663 12.772-3.813 24.904-12.602 34.161z" fill="#fff"/><path d="m428.204 157.631 22.718-22.718c1.953-1.953 5.118-1.953 7.071 0l22.718 22.718c1.953 1.953 1.953 5.118 0 7.071l-22.718 22.718c-1.953 1.953-5.118 1.953-7.071 0l-22.718-22.718c-1.952-1.953-1.952-5.119 0-7.071zm5.458 64.043-14.423-14.423c-1.953-1.953-5.118-1.953-7.071 0l-14.423 14.423c-1.953 1.953-1.953 5.118 0 7.071l14.423 14.423c1.953 1.953 5.118 1.953 7.071 0l14.423-14.423c1.953-1.952 1.953-5.118 0-7.071z" fill="#ffb509"/><path d="m72.378 287.41-22.718 22.718c-1.953 1.953-5.118 1.953-7.071 0l-22.717-22.718c-1.953-1.953-1.953-5.118 0-7.071l22.718-22.718c1.953-1.953 5.118-1.953 7.071 0l22.718 22.718c1.952 1.953 1.952 5.118-.001 7.071zm-5.457-64.043 14.423 14.423c1.953 1.953 5.118 1.953 7.071 0l14.423-14.423c1.953-1.953 1.953-5.118 0-7.071l-14.423-14.423c-1.953-1.953-5.118-1.953-7.071 0l-14.423 14.423c-1.953 1.952-1.953 5.118 0 7.071z" fill="#64dcfc"/></g></svg>